<?xml version="1.0" encoding="utf-8"?>
<!-- Generator: Adobe Illustrator 21.0.2, SVG Export Plug-In . SVG Version: 6.00 Build 0)  -->
<svg version="1.1" xmlns="http://www.w3.org/2000/svg" xmlns:xlink="http://www.w3.org/1999/xlink" x="0px" y="0px"
	 viewBox="0 0 95 95" style="enable-background:new 0 0 95 95;" xml:space="preserve">
<style type="text/css">
	.st0{fill:url(#XMLID_2_);}
	.st1{fill:url(#XMLID_3_);}
	.st2{opacity:0.33;fill:url(#XMLID_5_);}
	.st3{fill:#FFFFFF;}
	.st4{fill:url(#XMLID_12_);}
	.st5{fill:url(#XMLID_13_);}
	.st6{opacity:0.33;fill:url(#XMLID_14_);}
	.st7{fill:url(#XMLID_15_);}
	.st8{fill:url(#XMLID_21_);}
	.st9{opacity:0.33;fill:url(#XMLID_22_);}
	.st10{fill:url(#XMLID_23_);}
	.st11{fill:url(#XMLID_24_);}
	.st12{opacity:0.33;fill:url(#XMLID_33_);}
	.st13{fill:url(#XMLID_34_);}
	.st14{fill:url(#XMLID_35_);}
	.st15{opacity:0.33;fill:url(#XMLID_36_);}
	.st16{fill:url(#XMLID_42_);}
	.st17{fill:url(#XMLID_43_);}
	.st18{opacity:0.33;fill:url(#XMLID_44_);}
	.st19{fill:url(#XMLID_45_);}
	.st20{fill:url(#XMLID_51_);}
	.st21{opacity:0.33;fill:url(#XMLID_52_);}
	.st22{fill:url(#XMLID_53_);}
	.st23{fill:url(#XMLID_54_);}
	.st24{opacity:0.33;fill:url(#XMLID_60_);}
	.st25{fill:url(#XMLID_61_);}
	.st26{fill:url(#XMLID_62_);}
	.st27{opacity:0.33;fill:url(#XMLID_63_);}
	.st28{fill:url(#XMLID_69_);}
	.st29{fill:url(#XMLID_70_);}
	.st30{opacity:0.33;fill:url(#XMLID_71_);}
	.st31{fill:url(#XMLID_72_);}
	.st32{fill:url(#XMLID_78_);}
	.st33{opacity:0.33;fill:url(#XMLID_79_);}
	.st34{fill:url(#XMLID_80_);}
	.st35{fill:url(#XMLID_81_);}
	.st36{opacity:0.33;fill:url(#XMLID_87_);}
</style>
<g id="BACKGROUND">
</g>
<g id="OBJECTS">
	<g>
		<linearGradient id="XMLID_2_" gradientUnits="userSpaceOnUse" x1="47.5" y1="12.0785" x2="47.5" y2="82.9215">
			<stop  offset="0" style="stop-color:#FF5C8D"/>
			<stop  offset="0.1342" style="stop-color:#FD578A"/>
			<stop  offset="0.2992" style="stop-color:#F84883"/>
			<stop  offset="0.4803" style="stop-color:#F02F77"/>
			<stop  offset="0.6718" style="stop-color:#E50C66"/>
			<stop  offset="0.6972" style="stop-color:#E30763"/>
		</linearGradient>
		<path id="XMLID_41_" class="st0" d="M84,48.8C84,69.1,68,82.9,47.8,82.9S11,67,11,46.7s16.4-34.6,36.7-34.6S84,28.5,84,48.8z"/>
		<linearGradient id="XMLID_3_" gradientUnits="userSpaceOnUse" x1="46.1837" y1="12.5238" x2="46.1837" y2="79.9181">
			<stop  offset="0" style="stop-color:#610C30;stop-opacity:0"/>
			<stop  offset="0.5216" style="stop-color:#630D32;stop-opacity:0.5216"/>
			<stop  offset="0.8222" style="stop-color:#6C0F39;stop-opacity:0.8222"/>
			<stop  offset="1" style="stop-color:#751140"/>
		</linearGradient>
		<path id="XMLID_40_" class="st1" d="M80.9,47.4c0,19.3-15.1,32.5-34.4,32.5c-19.3,0-34.9-15.1-34.9-34.4c0-19.3,15.6-33,34.9-33
			C65.7,12.5,80.9,28.2,80.9,47.4z"/>
		<linearGradient id="XMLID_5_" gradientUnits="userSpaceOnUse" x1="46.8085" y1="48.0331" x2="46.8085" y2="14.9439">
			<stop  offset="0.2347" style="stop-color:#FFFFFF;stop-opacity:0"/>
			<stop  offset="0.9928" style="stop-color:#FFFFFF"/>
		</linearGradient>
		<path id="XMLID_39_" class="st2" d="M74.8,46.3c-8.4,6.1-11.8-5.6-28.5-6.1c-13.9-0.4-19.8,12.6-28.1,4.6
			C9,35.9,25.9,14.9,47.8,14.9C70.8,14.9,84.6,39.2,74.8,46.3z"/>
		<circle id="XMLID_38_" class="st3" cx="38.1" cy="22.8" r="2.6"/>
		<path id="XMLID_37_" class="st3" d="M33.3,24.2c1.7,2.3-0.7,3.1-3.1,4.9c-2.4,1.8-4.3,3.3-5.6,1.5c-0.7-0.9,0.7-3.1,3.1-4.9
			C30.2,24,32.7,23.3,33.3,24.2z"/>
		<g>
			<path class="st3" d="M47.5,30.1c-10.5,0-19,8.5-19,19c0,10.5,8.5,19,19,19c10.5,0,19-8.5,19-19C66.5,38.6,58,30.1,47.5,30.1z
				 M60,38.8c2.3,2.8,3.6,6.3,3.7,10.1c-0.2,0-5.7-1.2-11.3-0.5c-0.1-0.3-0.2-0.6-0.4-0.8c-0.3-0.8-0.7-1.6-1.1-2.3
				C57.4,42.6,60,38.8,60,38.8z M47.5,32.9c4.1,0,7.8,1.5,10.7,4c0,0.1-2.4,3.6-8.5,5.9c-2.8-5.1-5.8-9.1-6.1-9.4
				C44.9,33,46.2,32.9,47.5,32.9z M43.6,33.3L43.6,33.3C43.6,33.3,43.6,33.3,43.6,33.3C43.6,33.3,43.6,33.3,43.6,33.3z M40.6,34.4
				c0.2,0.3,3.2,4.4,6,9.3c-7.8,2.1-14.5,2-14.9,2C32.7,40.7,36.1,36.5,40.6,34.4z M31.3,49c0-0.2,0-0.3,0-0.5
				c0.3,0,8.3,0.2,16.6-2.3c0.5,0.9,0.9,1.8,1.3,2.8c-0.2,0.1-0.4,0.1-0.6,0.2C39.9,52,35.5,59.9,35.5,59.9l0,0
				C32.9,57,31.3,53.2,31.3,49z M47.5,65.2c-3.8,0-7.2-1.3-9.9-3.4v0c0,0-0.1-0.1-0.4-0.3c0.1,0.1,0.2,0.2,0.4,0.3
				c0.1-0.1,3.2-6.8,12.7-10.1c0,0,0.1,0,0.1,0c2.3,5.9,3.2,10.9,3.5,12.3C51.9,64.8,49.7,65.2,47.5,65.2z M56.5,62.5
				c-0.2-1-1-5.7-3.2-11.6c5.2-0.8,9.8,0.6,10.1,0.7C62.8,56.1,60.2,60,56.5,62.5z"/>
		</g>
	</g>
</g>
<g id="DESIGNED_BY_FREEPIK">
</g>
</svg>
