<?xml version="1.0" encoding="utf-8"?>
<!-- Generator: Adobe Illustrator 21.0.2, SVG Export Plug-In . SVG Version: 6.00 Build 0)  -->
<svg version="1.1" xmlns="http://www.w3.org/2000/svg" xmlns:xlink="http://www.w3.org/1999/xlink" x="0px" y="0px"
	 viewBox="0 0 95 95" style="enable-background:new 0 0 95 95;" xml:space="preserve">
<style type="text/css">
	.st0{fill:url(#XMLID_2_);}
	.st1{fill:url(#XMLID_3_);}
	.st2{opacity:0.33;fill:url(#XMLID_5_);}
	.st3{fill:#FFFFFF;}
	.st4{fill:url(#XMLID_12_);}
	.st5{fill:url(#XMLID_13_);}
	.st6{opacity:0.33;fill:url(#XMLID_14_);}
	.st7{fill:url(#XMLID_15_);}
	.st8{fill:url(#XMLID_21_);}
	.st9{opacity:0.33;fill:url(#XMLID_22_);}
	.st10{fill:url(#XMLID_23_);}
	.st11{fill:url(#XMLID_24_);}
	.st12{opacity:0.33;fill:url(#XMLID_33_);}
	.st13{fill:url(#XMLID_34_);}
	.st14{fill:url(#XMLID_35_);}
	.st15{opacity:0.33;fill:url(#XMLID_36_);}
	.st16{fill:url(#XMLID_42_);}
	.st17{fill:url(#XMLID_43_);}
	.st18{opacity:0.33;fill:url(#XMLID_44_);}
	.st19{fill:url(#XMLID_45_);}
	.st20{fill:url(#XMLID_51_);}
	.st21{opacity:0.33;fill:url(#XMLID_52_);}
	.st22{fill:url(#XMLID_53_);}
	.st23{fill:url(#XMLID_54_);}
	.st24{opacity:0.33;fill:url(#XMLID_60_);}
	.st25{fill:url(#XMLID_61_);}
	.st26{fill:url(#XMLID_62_);}
	.st27{opacity:0.33;fill:url(#XMLID_63_);}
	.st28{fill:url(#XMLID_69_);}
	.st29{fill:url(#XMLID_70_);}
	.st30{opacity:0.33;fill:url(#XMLID_71_);}
	.st31{fill:url(#XMLID_72_);}
	.st32{fill:url(#XMLID_78_);}
	.st33{opacity:0.33;fill:url(#XMLID_79_);}
	.st34{fill:url(#XMLID_80_);}
	.st35{fill:url(#XMLID_81_);}
	.st36{opacity:0.33;fill:url(#XMLID_87_);}
</style>
<g id="BACKGROUND">
</g>
<g id="OBJECTS">
	<g>
		<linearGradient id="XMLID_2_" gradientUnits="userSpaceOnUse" x1="47.5" y1="12.0786" x2="47.5" y2="82.9214">
			<stop  offset="0" style="stop-color:#FF7373"/>
			<stop  offset="0.1205" style="stop-color:#FA6E6E"/>
			<stop  offset="0.2686" style="stop-color:#EB6060"/>
			<stop  offset="0.4312" style="stop-color:#D24A4A"/>
			<stop  offset="0.6031" style="stop-color:#AF2A2A"/>
			<stop  offset="0.6972" style="stop-color:#991616"/>
		</linearGradient>
		<path id="XMLID_86_" class="st0" d="M84,48.8C84,69.1,68,82.9,47.8,82.9C27.5,82.9,11,67,11,46.7c0-20.3,16.4-34.6,36.7-34.6
			C68,12.1,84,28.5,84,48.8z"/>
		<linearGradient id="XMLID_3_" gradientUnits="userSpaceOnUse" x1="46.1838" y1="12.5239" x2="46.1838" y2="79.9182">
			<stop  offset="0" style="stop-color:#D31B1B;stop-opacity:0"/>
			<stop  offset="0.2892" style="stop-color:#D11B1B;stop-opacity:0.2892"/>
			<stop  offset="0.4561" style="stop-color:#C81A1A;stop-opacity:0.4561"/>
			<stop  offset="0.5918" style="stop-color:#BA1818;stop-opacity:0.5918"/>
			<stop  offset="0.7109" style="stop-color:#A61616;stop-opacity:0.7109"/>
			<stop  offset="0.819" style="stop-color:#8D1313;stop-opacity:0.819"/>
			<stop  offset="0.9178" style="stop-color:#6D0F0F;stop-opacity:0.9178"/>
			<stop  offset="1" style="stop-color:#4D0B0B"/>
		</linearGradient>
		<path id="XMLID_85_" class="st1" d="M80.9,47.4c0,19.3-15.1,32.5-34.4,32.5c-19.3,0-34.9-15.1-34.9-34.4s15.6-33,34.9-33
			C65.7,12.5,80.9,28.2,80.9,47.4z"/>
		<linearGradient id="XMLID_5_" gradientUnits="userSpaceOnUse" x1="46.8085" y1="48.0331" x2="46.8085" y2="14.9439">
			<stop  offset="0.2347" style="stop-color:#FFFFFF;stop-opacity:0"/>
			<stop  offset="0.9928" style="stop-color:#FFFFFF"/>
		</linearGradient>
		<path id="XMLID_84_" class="st2" d="M74.8,46.3c-8.4,6.1-11.8-5.6-28.5-6.1c-13.9-0.4-19.8,12.6-28.1,4.6
			C9,35.9,25.9,14.9,47.8,14.9C70.8,14.9,84.6,39.2,74.8,46.3z"/>
		<circle id="XMLID_83_" class="st3" cx="38.1" cy="22.8" r="2.6"/>
		<path id="XMLID_82_" class="st3" d="M33.3,24.2c1.7,2.3-0.7,3.1-3.1,4.9c-2.4,1.8-4.3,3.3-5.6,1.5c-0.7-0.9,0.7-3.1,3.1-4.9
			C30.2,24,32.7,23.3,33.3,24.2z"/>
		<g>
			<g>
				<path class="st3" d="M55.6,49.4c0,0.1,0,0.2,0,0.3C55.6,49.6,55.6,49.5,55.6,49.4z"/>
				<path class="st3" d="M48.4,33.7c-20.2,0-20.6,1.8-20.6,15.9c0,14.1,0.4,15.9,20.6,15.9c20.2,0,20.6-1.8,20.6-15.9
					C69,35.5,68.6,33.7,48.4,33.7z M55,50.6l-9.3,4.5c-0.7,0.4-1.6-0.2-1.6-1v-8.8c0-0.8,0.9-1.4,1.6-1l9.3,4.3
					c0.4,0.2,0.6,0.5,0.6,0.8c0,0.1,0,0.2,0,0.3C55.6,50,55.3,50.4,55,50.6z"/>
			</g>
		</g>
	</g>
</g>
<g id="DESIGNED_BY_FREEPIK">
</g>
</svg>
