<?xml version="1.0" encoding="utf-8"?>
<!-- Generator: Adobe Illustrator 21.0.2, SVG Export Plug-In . SVG Version: 6.00 Build 0)  -->
<svg version="1.1" id="Layer_1" xmlns="http://www.w3.org/2000/svg" xmlns:xlink="http://www.w3.org/1999/xlink" x="0px" y="0px"
	 viewBox="0 0 23.7 23.9" style="enable-background:new 0 0 23.7 23.9;" xml:space="preserve">
<style type="text/css">
	.st0{fill:#606060;}
	.st1{fill-rule:evenodd;clip-rule:evenodd;fill:#EFEFEF;}
	.st2{fill:#747B87;}
	.st3{fill:#444A58;}
	.st4{fill-rule:evenodd;clip-rule:evenodd;fill:#444A58;}
	.st5{fill:#444A57;}
	.st6{fill:none;}
</style>
<path class="st3" d="M14.3,3.9H9.4c-3.1,0-5.5,2.5-5.5,5.5v4.9c0,3.1,2.5,5.5,5.5,5.5h4.9c3.1,0,5.5-2.5,5.5-5.5V9.5
	C19.9,6.4,17.4,3.9,14.3,3.9 M15,13.1h-2v2c0,0.6-0.5,1.1-1.1,1.1c-0.6,0-1.1-0.5-1.1-1.1v-2h-2c-0.6,0-1.1-0.5-1.1-1.1
	c0-0.6,0.5-1.1,1.1-1.1h2v-2c0-0.6,0.5-1.1,1.1-1.1c0.6,0,1.1,0.5,1.1,1.1v2h2c0.6,0,1.1,0.5,1.1,1.1C16.2,12.6,15.6,13.1,15,13.1"
	/>
</svg>
