<?xml version="1.0" encoding="utf-8"?>
<!-- Generator: Adobe Illustrator 21.0.2, SVG Export Plug-In . SVG Version: 6.00 Build 0)  -->
<svg version="1.1" id="Layer_1" xmlns="http://www.w3.org/2000/svg" xmlns:xlink="http://www.w3.org/1999/xlink" x="0px" y="0px"
	 viewBox="0 0 23.7 23.9" style="enable-background:new 0 0 23.7 23.9;" xml:space="preserve">
<style type="text/css">
	.st0{fill:#606060;}
	.st1{fill-rule:evenodd;clip-rule:evenodd;fill:#EFEFEF;}
	.st2{fill:#747B87;}
	.st3{fill:#444A58;}
	.st4{fill-rule:evenodd;clip-rule:evenodd;fill:#444A58;}
	.st5{fill:#444A57;}
	.st6{fill:none;}
</style>
<path class="st4" d="M18.6,20.3H5.1c-1.2,0-2.2-1.1-2.2-2.6V6.2c0-1.4,1-2.6,2.2-2.6h13.5c1.2,0,2.2,1.1,2.2,2.6v11.5
	C20.9,19.1,19.9,20.3,18.6,20.3 M6.6,6.5H9c0.6,0,1.1,0.6,1.1,1.3v4.1c0,0.7-0.5,1.3-1.1,1.3H6.6c-0.6,0-1.1-0.6-1.1-1.3V7.8
	C5.5,7.1,6,6.5,6.6,6.5 M6.5,15.3H17c0.5,0,1,0.5,1,1.1c0,0.6-0.4,1.1-1,1.1H6.5c-0.5,0-1-0.5-1-1.1C5.5,15.8,6,15.3,6.5,15.3
	 M17,8.7h-3.6c-0.5,0-0.9-0.5-0.9-1.1c0-0.6,0.4-1.1,0.9-1.1H17c0.5,0,0.9,0.5,0.9,1.1C17.9,8.2,17.5,8.7,17,8.7 M17,13h-3.6
	c-0.5,0-0.9-0.5-0.9-1.1c0-0.6,0.4-1.1,0.9-1.1H17c0.5,0,0.9,0.5,0.9,1.1C17.9,12.5,17.5,13,17,13"/>
</svg>
