<?xml version="1.0" encoding="utf-8"?>
<!-- Generator: Adobe Illustrator 21.0.2, SVG Export Plug-In . SVG Version: 6.00 Build 0)  -->
<svg version="1.1" id="Layer_1" xmlns="http://www.w3.org/2000/svg" xmlns:xlink="http://www.w3.org/1999/xlink" x="0px" y="0px"
	 viewBox="0 0 23.7 23.9" style="enable-background:new 0 0 23.7 23.9;" xml:space="preserve">
<style type="text/css">
	.st0{fill:#606060;}
	.st1{fill-rule:evenodd;clip-rule:evenodd;fill:#EFEFEF;}
	.st2{fill:#747B87;}
	.st3{fill:#444A58;}
	.st4{fill-rule:evenodd;clip-rule:evenodd;fill:#444A58;}
	.st5{fill:#444A57;}
	.st6{fill:none;}
</style>
<path class="st4" d="M15.7,4.9l-3.9,3.9L8,4.9c-0.9-0.9-2.3-0.9-3.1,0C4,5.8,4,7.2,4.9,8.1l3.9,3.9l-3.9,3.9c-0.9,0.9-0.9,2.3,0,3.1
	c0.9,0.9,2.3,0.9,3.1,0l3.9-3.9l3.9,3.9c0.9,0.9,2.3,0.9,3.1,0c0.9-0.9,0.9-2.3,0-3.1L15,11.9l3.9-3.9c0.9-0.9,0.9-2.3,0-3.1
	C18,4.1,16.6,4.1,15.7,4.9"/>
</svg>
