<?xml version="1.0" encoding="utf-8"?>
<!-- Generator: Adobe Illustrator 21.0.2, SVG Export Plug-In . SVG Version: 6.00 Build 0)  -->
<svg version="1.1" id="Layer_1" xmlns="http://www.w3.org/2000/svg" xmlns:xlink="http://www.w3.org/1999/xlink" x="0px" y="0px"
	 viewBox="0 0 23.7 23.9" style="enable-background:new 0 0 23.7 23.9;" xml:space="preserve">
<style type="text/css">
	.st0{fill:#606060;}
	.st1{fill-rule:evenodd;clip-rule:evenodd;fill:#EFEFEF;}
	.st2{fill:#747B87;}
	.st3{fill:#444A58;}
	.st4{fill-rule:evenodd;clip-rule:evenodd;fill:#444A58;}
	.st5{fill:#444A57;}
	.st6{fill:none;}
</style>
<path class="st4" d="M18.2,7.4c-0.4,0-0.9,0.2-1.2,0.5l-5.1,4.9L6.7,7.8C6.4,7.5,6,7.4,5.6,7.4c-0.4,0-0.9,0.2-1.2,0.5
	c-0.7,0.6-0.7,1.6,0,2.2l6.3,6c0.3,0.3,0.8,0.5,1.2,0.5c0.4,0,0.9-0.2,1.2-0.5l6.3-6c0.7-0.6,0.7-1.6,0-2.2
	C19.1,7.5,18.6,7.4,18.2,7.4"/>
</svg>
