<?xml version="1.0" encoding="utf-8"?>
<!-- Generator: Adobe Illustrator 21.0.2, SVG Export Plug-In . SVG Version: 6.00 Build 0)  -->
<svg version="1.1" id="Layer_1" xmlns="http://www.w3.org/2000/svg" xmlns:xlink="http://www.w3.org/1999/xlink" x="0px" y="0px"
	 viewBox="0 0 23.7 23.9" style="enable-background:new 0 0 23.7 23.9;" xml:space="preserve">
<style type="text/css">
	.st0{fill:#606060;}
	.st1{fill-rule:evenodd;clip-rule:evenodd;fill:#EFEFEF;}
	.st2{fill:#747B87;}
	.st3{fill:#444A58;}
	.st4{fill-rule:evenodd;clip-rule:evenodd;fill:#444A58;}
	.st5{fill:#444A57;}
	.st6{fill:none;}
</style>
<path class="st3" d="M13.6,16v3.1c0,0.5,0.4,0.9,0.9,0.9h5.2c0.5,0,0.9-0.4,0.9-0.9v-7.7c0-0.4-0.1-0.7-0.4-1l-7.3-6.1
	c-0.5-0.5-1.4-0.5-2,0l-7.3,6.1c-0.3,0.3-0.4,0.6-0.4,1v7.7C3.2,19.6,3.5,20,4,20h5.2c0.5,0,0.9-0.4,0.9-0.9V16c0-1,0.8-1.7,1.7-1.7
	C12.8,14.3,13.6,15.1,13.6,16"/>
</svg>
