<?xml version="1.0" encoding="utf-8"?>
<!-- Generator: Adobe Illustrator 21.0.2, SVG Export Plug-In . SVG Version: 6.00 Build 0)  -->
<svg version="1.1" id="Layer_1" xmlns="http://www.w3.org/2000/svg" xmlns:xlink="http://www.w3.org/1999/xlink" x="0px" y="0px"
	 viewBox="0 0 23.7 23.9" style="enable-background:new 0 0 23.7 23.9;" xml:space="preserve">
<style type="text/css">
	.st0{fill:#606060;}
	.st1{fill-rule:evenodd;clip-rule:evenodd;fill:#EFEFEF;}
	.st2{fill:#747B87;}
	.st3{fill:#444A58;}
	.st4{fill-rule:evenodd;clip-rule:evenodd;fill:#444A58;}
	.st5{fill:#444A57;}
	.st6{fill:none;}
</style>
<path class="st3" d="M16.9,2.9H6.8C5.7,2.9,4.7,3.8,4.7,5v13.6c0,0.3,0.1,0.5,0.3,0.7l1.4,1.5c0.4,0.4,1,0.4,1.3,0l1-1.1
	c0.4-0.4,1-0.4,1.3,0l1,1.1c0.4,0.4,1,0.4,1.3,0l1-1.1c0.4-0.4,1-0.4,1.3,0l1,1.1c0.4,0.4,1,0.4,1.3,0l1.4-1.5
	c0.2-0.2,0.3-0.4,0.3-0.7V5.6l0,0V5C19,3.8,18.1,2.9,16.9,2.9 M8.4,7.4h5.4c0.5,0,0.9,0.4,0.9,0.9c0,0.5-0.4,0.9-0.9,0.9H8.4
	c-0.5,0-0.9-0.4-0.9-0.9C7.4,7.9,7.9,7.4,8.4,7.4 M8.4,10.9h2.7c0.5,0,0.9,0.4,0.9,0.9s-0.4,0.9-0.9,0.9H8.4c-0.5,0-0.9-0.4-0.9-0.9
	S7.9,10.9,8.4,10.9"/>
</svg>
