<?xml version="1.0" encoding="utf-8"?>
<!-- Generator: Adobe Illustrator 21.0.2, SVG Export Plug-In . SVG Version: 6.00 Build 0)  -->
<svg version="1.1" id="Layer_1" xmlns="http://www.w3.org/2000/svg" xmlns:xlink="http://www.w3.org/1999/xlink" x="0px" y="0px"
	 viewBox="0 0 23.7 23.9" style="enable-background:new 0 0 23.7 23.9;" xml:space="preserve">
<style type="text/css">
	.st0{fill:#606060;}
	.st1{fill-rule:evenodd;clip-rule:evenodd;fill:#EFEFEF;}
	.st2{fill:#747B87;}
	.st3{fill:#444A58;}
	.st4{fill-rule:evenodd;clip-rule:evenodd;fill:#444A58;}
	.st5{fill:#444A57;}
	.st6{fill:none;}
</style>
<path class="st3" d="M11.9,20c-2.1,0-4.1,0-6.2,0c-1,0-1.8-0.8-1.8-1.8c0-4.2,0-8.4,0-12.5c0-1,0.8-1.8,1.8-1.8c3.5,0,7,0,10.5,0
	c0.1,0,0.2,0,0.3,0.1c1.1,1.1,2.2,2.2,3.3,3.3c0.1,0.1,0.1,0.2,0.1,0.3c0,3.5,0,7.1,0,10.6c0,1-0.8,1.8-1.7,1.8
	C16,20,13.9,20,11.9,20 M14,6.7H7.4c-0.6,0-1.1,0.5-1.1,1.1v1.3c0,0.6,0.5,1.1,1.1,1.1H14c0.6,0,1.1-0.5,1.1-1.1V7.8
	C15.1,7.2,14.6,6.7,14,6.7 M11.9,17.3c1.2,0,2.3-1,2.3-2.3c0-1.3-1-2.4-2.2-2.4c-1.3,0-2.3,1-2.3,2.3C9.6,16.2,10.6,17.3,11.9,17.3"
	/>
</svg>
