<?xml version="1.0" encoding="utf-8"?>
<!-- Generator: Adobe Illustrator 21.0.2, SVG Export Plug-In . SVG Version: 6.00 Build 0)  -->
<svg version="1.1" id="Layer_1" xmlns="http://www.w3.org/2000/svg" xmlns:xlink="http://www.w3.org/1999/xlink" x="0px" y="0px"
	 viewBox="0 0 23.7 23.9" style="enable-background:new 0 0 23.7 23.9;" xml:space="preserve">
<style type="text/css">
	.st0{fill:#606060;}
	.st1{fill-rule:evenodd;clip-rule:evenodd;fill:#EFEFEF;}
	.st2{fill:#747B87;}
	.st3{fill:#444A58;}
	.st4{fill-rule:evenodd;clip-rule:evenodd;fill:#444A58;}
	.st5{fill:#444A57;}
	.st6{fill:none;}
</style>
<path class="st4" d="M19.7,10.6l1.4-0.7c0.4-0.2,0.6-0.8,0.4-1.2L19.9,6c-0.2-0.4-0.8-0.6-1.2-0.3l-1.4,0.7
	c-0.4,0.2-1.1,0.2-1.5-0.1c-0.2-0.1-0.4-0.2-0.6-0.3c-0.4-0.2-0.8-0.7-0.8-1.2V3.2c0-0.5-0.4-0.9-0.9-0.9h-3.2
	c-0.5,0-0.9,0.4-0.9,0.9v1.5c0,0.5-0.4,1-0.8,1.2C8.4,6.1,8.3,6.1,8.1,6.2C7.7,6.5,7,6.5,6.6,6.3L5.5,5.7C5.1,5.5,4.5,5.6,4.3,6
	L2.7,8.7C2.5,9.1,2.6,9.6,3,9.8l1.1,0.6c0.4,0.2,0.7,0.8,0.7,1.3c0,0.1,0,0.2,0,0.3c0,0.5-0.3,1-0.7,1.3L2.7,14
	c-0.4,0.2-0.6,0.8-0.4,1.2l1.5,2.6c0.2,0.4,0.8,0.6,1.2,0.3l1.4-0.7c0.4-0.2,1.1-0.2,1.5,0.1c0.2,0.1,0.4,0.2,0.6,0.3
	c0.4,0.2,0.8,0.7,0.8,1.2v1.5c0,0.5,0.4,0.9,0.9,0.9h3.2c0.5,0,0.9-0.4,0.9-0.9v-1.5c0-0.5,0.4-1,0.8-1.2c0.2-0.1,0.3-0.2,0.5-0.3
	c0.4-0.3,1.1-0.3,1.5-0.1l1.1,0.6c0.4,0.2,1,0.1,1.2-0.3l1.6-2.6c0.2-0.4,0.1-0.9-0.3-1.2l-1.1-0.6c-0.4-0.2-0.7-0.8-0.7-1.3
	c0-0.1,0-0.2,0-0.3C18.9,11.4,19.2,10.8,19.7,10.6 M11.9,15.3c-1.9,0-3.5-1.5-3.5-3.4c0-1.9,1.6-3.4,3.5-3.4c2,0,3.5,1.5,3.5,3.4
	C15.4,13.8,13.8,15.3,11.9,15.3"/>
</svg>
