<?xml version="1.0" encoding="utf-8"?>
<!-- Generator: Adobe Illustrator 21.0.2, SVG Export Plug-In . SVG Version: 6.00 Build 0)  -->
<svg version="1.1" id="Layer_1" xmlns="http://www.w3.org/2000/svg" xmlns:xlink="http://www.w3.org/1999/xlink" x="0px" y="0px"
	 viewBox="0 0 23.7 23.9" style="enable-background:new 0 0 23.7 23.9;" xml:space="preserve">
<style type="text/css">
	.st0{fill-rule:evenodd;clip-rule:evenodd;fill:#EFEFEF;}
	.st1{fill:#747B87;}
	.st2{fill:#444A58;}
	.st3{fill-rule:evenodd;clip-rule:evenodd;fill:#444A58;}
	.st4{fill:#444A57;}
	.st5{fill:none;}
	.st6{fill:#2AB659;}
</style>
<g>
</g>
<path class="st3" d="M13,14.2V18c0,0.6,0.4,0.8,0.8,0.4l6.5-5.7c0.2-0.2,0.3-0.4,0.3-0.7c0-0.3-0.1-0.5-0.3-0.7l-6.5-5.7
	C13.4,5.1,13,5.3,13,5.9v3.9h-1.1C7.7,9.7,4,13.2,3.2,17C3.1,17.3,3,17.6,3,17.9c0,0.3,0.1,0.4,0.3,0.2c0,0,0.1-0.1,0.1-0.1
	c2.2-2.3,5.3-3.6,8.4-3.8L13,14.2"/>
</svg>
