<?xml version="1.0" encoding="utf-8"?>
<!-- Generator: Adobe Illustrator 21.0.2, SVG Export Plug-In . SVG Version: 6.00 Build 0)  -->
<svg version="1.1" xmlns="http://www.w3.org/2000/svg" xmlns:xlink="http://www.w3.org/1999/xlink" x="0px" y="0px"
	 viewBox="0 0 32 32" style="enable-background:new 0 0 32 32;" xml:space="preserve">
<style type="text/css">
	.st0{display:none;}
	.st1{display:inline;fill:#FFFFFF;}
	.st2{fill:none;stroke:#000000;stroke-width:2;stroke-linejoin:round;stroke-miterlimit:10;}
	.st3{fill:#121212;}
	.st4{fill:#7D7D7D;}
</style>
<g id="Background" class="st0">
	<rect x="-17.5" y="-17.5" class="st1" width="490" height="490"/>
</g>
<g id="_x31_-User-Man">
	<g>
		<g>
			<path class="st3" d="M16,32C7.2,32,0,24.8,0,16C0,7.2,7.2,0,16,0c8.8,0,16,7.2,16,16C32,24.8,24.8,32,16,32z"/>
		</g>
		<path class="st4" d="M27.1,8.9H5.7c-0.4,0-0.8,0.3-0.8,0.8c0,0.2,0.2,0.4,0.4,0.4c0.1,0,0.2,0.1,0.3,0.2c0.1,0.1,0.1,0.2,0.1,0.3
			l0.5,5c0,0.4,0.4,0.8,0.9,0.8H14c0.4,0,0.7-0.4,0.8-0.8l0.4-1.6c0.1-0.4,0.4-0.6,0.8-0.6h0.7c0.4,0,0.7,0.4,0.8,0.8l0.4,1.6
			c0.1,0.4,0.4,0.6,0.8,0.6h6.8c0.4,0,0.8-0.5,0.9-0.9l0.6-5c0-0.2,0.2-0.3,0.4-0.3h0c0.2,0,0.4-0.2,0.4-0.4
			C27.9,9.3,27.5,8.9,27.1,8.9z M14.2,11.5l-0.3,2.9c-0.1,0.7-0.6,1.2-1.3,1.2H8.4c-0.7,0-1.2-0.5-1.3-1.2l-0.3-2.9
			c0-0.4,0.1-0.7,0.3-1c0.2-0.3,0.6-0.4,1-0.4h4.8c0.4,0,0.7,0.2,1,0.4C14.1,10.8,14.2,11.2,14.2,11.5z M25.7,14.5
			c-0.1,0.7-0.6,1.2-1.3,1.2h-4.2c-0.7,0-1.2-0.5-1.3-1.2l-0.3-2.9c0-0.4,0.1-0.7,0.3-1c0.2-0.3,0.6-0.4,1-0.4h4.8
			c0.4,0,0.7,0.2,1,0.4c0.2,0.3,0.4,0.6,0.3,1L25.7,14.5z"/>
		<path class="st4" d="M20.5,20.2c-1.1-1.1-1.8-1.8-3.2-1.3c-0.3,0.1-0.6,0.3-0.9,0.6c-0.2-0.3-0.5-0.5-0.9-0.6
			c-1.4-0.5-2.1,0.2-3.2,1.3c-1.5,1.5-3.6,1.6-6.2-0.3c0.7,1.3,1.9,2.4,3.4,3.2c1.5,0.8,5.1,1.1,6.6-0.2c0.1-0.1,0.2-0.2,0.3-0.3
			c0.1,0.1,0.2,0.2,0.3,0.3c1.5,1.3,5.1,0.9,6.6,0.2c1.5-0.8,2.8-1.9,3.4-3.2C24.1,21.9,22,21.8,20.5,20.2z"/>
	</g>
</g>
<g id="_x32_-User-Woman">
</g>
<g id="_x33_-User-Add">
</g>
<g id="_x34_-User-Remove">
</g>
<g id="_x35_-User">
</g>
<g id="_x36_-User">
</g>
<g id="_x37_-User-Check">
</g>
<g id="_x38_-User">
</g>
<g id="_x39_-User-Up">
</g>
<g id="_x31_0-User-Down">
</g>
<g id="_x31_1-User-Right">
</g>
<g id="_x31_2-User-Left">
</g>
<g id="_x31_3-User-Process">
</g>
<g id="_x31_4-User-Security">
</g>
<g id="_x31_5-User-Security">
</g>
<g id="_x31_6-User-Time">
</g>
<g id="_x31_7-User-Pin">
</g>
<g id="_x31_8-User-Communication">
</g>
<g id="_x31_9-User-Idea">
</g>
<g id="_x32_0-User-Exchange">
</g>
<g id="_x32_1-User-Trash">
</g>
<g id="_x32_2-User-Arrow_Up">
</g>
<g id="_x32_3-User-Arrow_Down">
</g>
<g id="_x32_4-User-Search">
</g>
<g id="_x32_5-User-Data">
</g>
<g id="_x32_6-User-Arrow_Right">
</g>
<g id="_x32_7-User-Arrow_Left">
</g>
<g id="_x32_8-User-Pen">
</g>
<g id="_x32_9-User-Security">
</g>
<g id="_x33_0-User-Location">
</g>
<g id="_x33_1-User-Chart">
</g>
<g id="_x33_2-User-Chart">
</g>
<g id="_x33_3-User-Bell">
</g>
<g id="_x33_4-User-Smile">
</g>
<g id="_x33_5-User-Sad">
</g>
<g id="_x33_6-User-Check">
</g>
<g id="_x33_7-User">
</g>
<g id="_x33_8-User-List">
</g>
<g id="_x33_9-User-List">
</g>
<g id="_x34_0-User-Mail">
</g>
</svg>
