<?xml version="1.0" encoding="utf-8"?>
<!-- Generator: Adobe Illustrator 21.0.2, SVG Export Plug-In . SVG Version: 6.00 Build 0)  -->
<svg version="1.1" xmlns="http://www.w3.org/2000/svg" xmlns:xlink="http://www.w3.org/1999/xlink" x="0px" y="0px"
	 viewBox="0 0 95 95" style="enable-background:new 0 0 95 95;" xml:space="preserve">
<style type="text/css">
	.st0{fill:url(#XMLID_2_);}
	.st1{fill:url(#XMLID_3_);}
	.st2{opacity:0.33;fill:url(#XMLID_5_);}
	.st3{fill:#FFFFFF;}
	.st4{fill:url(#XMLID_12_);}
	.st5{fill:url(#XMLID_13_);}
	.st6{opacity:0.33;fill:url(#XMLID_14_);}
	.st7{fill:url(#XMLID_15_);}
	.st8{fill:url(#XMLID_21_);}
	.st9{opacity:0.33;fill:url(#XMLID_22_);}
	.st10{fill:url(#XMLID_23_);}
	.st11{fill:url(#XMLID_24_);}
	.st12{opacity:0.33;fill:url(#XMLID_33_);}
	.st13{fill:url(#XMLID_34_);}
	.st14{fill:url(#XMLID_35_);}
	.st15{opacity:0.33;fill:url(#XMLID_36_);}
	.st16{fill:url(#XMLID_42_);}
	.st17{fill:url(#XMLID_43_);}
	.st18{opacity:0.33;fill:url(#XMLID_44_);}
	.st19{fill:url(#XMLID_45_);}
	.st20{fill:url(#XMLID_51_);}
	.st21{opacity:0.33;fill:url(#XMLID_52_);}
	.st22{fill:url(#XMLID_53_);}
	.st23{fill:url(#XMLID_54_);}
	.st24{opacity:0.33;fill:url(#XMLID_60_);}
	.st25{fill:url(#XMLID_61_);}
	.st26{fill:url(#XMLID_62_);}
	.st27{opacity:0.33;fill:url(#XMLID_63_);}
	.st28{fill:url(#XMLID_69_);}
	.st29{fill:url(#XMLID_70_);}
	.st30{opacity:0.33;fill:url(#XMLID_71_);}
	.st31{fill:url(#XMLID_72_);}
	.st32{fill:url(#XMLID_78_);}
	.st33{opacity:0.33;fill:url(#XMLID_79_);}
	.st34{fill:url(#XMLID_80_);}
	.st35{fill:url(#XMLID_81_);}
	.st36{opacity:0.33;fill:url(#XMLID_87_);}
</style>
<g id="BACKGROUND">
</g>
<g id="OBJECTS">
	<g>
		<linearGradient id="XMLID_2_" gradientUnits="userSpaceOnUse" x1="47.5" y1="12.0785" x2="47.5" y2="82.9215">
			<stop  offset="0" style="stop-color:#FFA50A"/>
			<stop  offset="9.301995e-02" style="stop-color:#FEA00F"/>
			<stop  offset="0.2074" style="stop-color:#FB911E"/>
			<stop  offset="0.3331" style="stop-color:#F77837"/>
			<stop  offset="0.4668" style="stop-color:#F1555A"/>
			<stop  offset="0.6054" style="stop-color:#E92986"/>
			<stop  offset="0.6972" style="stop-color:#E307A8"/>
		</linearGradient>
		<path id="XMLID_77_" class="st0" d="M84,48.8C84,69.1,68,82.9,47.8,82.9C27.5,82.9,11,67,11,46.7c0-20.3,16.4-34.6,36.7-34.6
			C68,12.1,84,28.5,84,48.8z"/>
		<linearGradient id="XMLID_3_" gradientUnits="userSpaceOnUse" x1="46.1838" y1="12.5239" x2="46.1838" y2="79.9182">
			<stop  offset="0" style="stop-color:#AB02AE;stop-opacity:0"/>
			<stop  offset="0.4553" style="stop-color:#A902AD;stop-opacity:0.4553"/>
			<stop  offset="0.718" style="stop-color:#A001A8;stop-opacity:0.718"/>
			<stop  offset="0.9311" style="stop-color:#9200A1;stop-opacity:0.9311"/>
			<stop  offset="1" style="stop-color:#8C009E"/>
		</linearGradient>
		<path id="XMLID_76_" class="st1" d="M80.9,47.4c0,19.3-15.1,32.5-34.4,32.5c-19.3,0-34.9-15.1-34.9-34.4c0-19.3,15.6-33,34.9-33
			C65.7,12.5,80.9,28.2,80.9,47.4z"/>
		<linearGradient id="XMLID_5_" gradientUnits="userSpaceOnUse" x1="46.8085" y1="48.0332" x2="46.8085" y2="14.944">
			<stop  offset="0.2347" style="stop-color:#FFFFFF;stop-opacity:0"/>
			<stop  offset="0.9928" style="stop-color:#FFFFFF"/>
		</linearGradient>
		<path id="XMLID_75_" class="st2" d="M74.8,46.3c-8.4,6.1-11.8-5.6-28.5-6.1c-13.9-0.4-19.8,12.6-28.1,4.6
			C9,35.9,25.9,14.9,47.8,14.9C70.8,14.9,84.6,39.2,74.8,46.3z"/>
		<circle id="XMLID_74_" class="st3" cx="38.1" cy="22.8" r="2.6"/>
		<path id="XMLID_73_" class="st3" d="M33.3,24.2c1.7,2.3-0.7,3.1-3.1,4.9c-2.4,1.8-4.3,3.3-5.6,1.5c-0.7-0.9,0.7-3.1,3.1-4.9
			C30.2,24,32.7,23.3,33.3,24.2z"/>
		<g>
			<g>
				<path class="st3" d="M29.5,41.9c0.3-1.7,0.6-3.4,1.6-4.9c2.1-3.5,5.4-4.8,9.3-4.9c5.2-0.1,10.5-0.1,15.7,0
					c3.5,0.1,6.7,1.2,8.9,4.3c1.4,2,1.9,4.2,2,6.6c0.1,5,0.1,10,0,15.1c-0.1,4-1.5,7.5-5.3,9.6c-1.7,1-3.7,1.4-5.6,1.4
					c-5.2,0.1-10.3,0.1-15.5,0c-3.9-0.1-7.2-1.4-9.4-4.9c-0.9-1.5-1.2-3.2-1.6-4.9C29.5,53.4,29.5,47.7,29.5,41.9z M48.2,35.6
					c-2.6,0-5.1,0-7.7,0c-4,0.1-6.5,2-7.2,5.4c-0.2,0.7-0.3,1.5-0.3,2.2c0,4.8-0.1,9.7,0,14.5c0.1,4.8,2.6,7.4,7.2,7.6
					c5.3,0.2,10.5,0.2,15.8,0c3.9-0.1,6.2-2,6.9-5.4c0.1-0.6,0.3-1.2,0.3-1.8c0-5.5,0.3-11.1-0.2-16.6c-0.3-3.3-2.5-5.4-5.8-5.8
					C54.3,35.4,51.2,35.7,48.2,35.6z"/>
				<path class="st3" d="M57.9,50.6c0,5.2-4.3,9.5-9.6,9.6c-5.3,0.1-9.8-4.3-9.7-9.7c0-5.3,4.5-9.7,9.7-9.6
					C53.6,41,57.9,45.3,57.9,50.6z M54.3,50.5c0-3.3-2.7-6-6.1-6c-3.3,0-6.1,2.7-6.1,6c0,3.3,2.7,6,6.1,6
					C51.5,56.6,54.3,53.8,54.3,50.5z"/>
				<path class="st3" d="M58.1,38.3c1.3,0,2.4,1,2.4,2.3c0,1.2-1,2.3-2.3,2.3c-1.3,0-2.4-1-2.4-2.3C55.7,39.4,56.8,38.4,58.1,38.3z"
					/>
			</g>
		</g>
	</g>
</g>
<g id="DESIGNED_BY_FREEPIK">
</g>
</svg>
