<?xml version="1.0" encoding="utf-8"?>
<!-- Generator: Adobe Illustrator 21.0.2, SVG Export Plug-In . SVG Version: 6.00 Build 0)  -->
<svg version="1.1" xmlns="http://www.w3.org/2000/svg" xmlns:xlink="http://www.w3.org/1999/xlink" x="0px" y="0px"
	 viewBox="0 0 95 95" style="enable-background:new 0 0 95 95;" xml:space="preserve">
<style type="text/css">
	.st0{fill:url(#XMLID_2_);}
	.st1{fill:url(#XMLID_3_);}
	.st2{opacity:0.33;fill:url(#XMLID_5_);}
	.st3{fill:#FFFFFF;}
	.st4{fill:url(#XMLID_12_);}
	.st5{fill:url(#XMLID_13_);}
	.st6{opacity:0.33;fill:url(#XMLID_14_);}
	.st7{fill:url(#XMLID_15_);}
	.st8{fill:url(#XMLID_21_);}
	.st9{opacity:0.33;fill:url(#XMLID_22_);}
	.st10{fill:url(#XMLID_23_);}
	.st11{fill:url(#XMLID_24_);}
	.st12{opacity:0.33;fill:url(#XMLID_33_);}
	.st13{fill:url(#XMLID_34_);}
	.st14{fill:url(#XMLID_35_);}
	.st15{opacity:0.33;fill:url(#XMLID_36_);}
	.st16{fill:url(#XMLID_42_);}
	.st17{fill:url(#XMLID_43_);}
	.st18{opacity:0.33;fill:url(#XMLID_44_);}
	.st19{fill:url(#XMLID_45_);}
	.st20{fill:url(#XMLID_51_);}
	.st21{opacity:0.33;fill:url(#XMLID_52_);}
	.st22{fill:url(#XMLID_53_);}
	.st23{fill:url(#XMLID_54_);}
	.st24{opacity:0.33;fill:url(#XMLID_60_);}
	.st25{fill:url(#XMLID_61_);}
	.st26{fill:url(#XMLID_62_);}
	.st27{opacity:0.33;fill:url(#XMLID_63_);}
	.st28{fill:url(#XMLID_69_);}
	.st29{fill:url(#XMLID_70_);}
	.st30{opacity:0.33;fill:url(#XMLID_71_);}
	.st31{fill:url(#XMLID_72_);}
	.st32{fill:url(#XMLID_78_);}
	.st33{opacity:0.33;fill:url(#XMLID_79_);}
	.st34{fill:url(#XMLID_80_);}
	.st35{fill:url(#XMLID_81_);}
	.st36{opacity:0.33;fill:url(#XMLID_87_);}
</style>
<g id="BACKGROUND">
</g>
<g id="OBJECTS">
	<g>
		<linearGradient id="XMLID_2_" gradientUnits="userSpaceOnUse" x1="47.5" y1="12.0786" x2="47.5" y2="82.9214">
			<stop  offset="0" style="stop-color:#5C98FF"/>
			<stop  offset="0.1324" style="stop-color:#5797FA"/>
			<stop  offset="0.2951" style="stop-color:#4895EB"/>
			<stop  offset="0.4738" style="stop-color:#2F91D2"/>
			<stop  offset="0.6627" style="stop-color:#0C8BAF"/>
			<stop  offset="0.6972" style="stop-color:#058AA8"/>
		</linearGradient>
		<path id="XMLID_68_" class="st0" d="M84,48.8C84,69.1,68,82.9,47.8,82.9S11,67,11,46.7c0-20.3,16.4-34.6,36.7-34.6
			S84,28.5,84,48.8z"/>
		<linearGradient id="XMLID_3_" gradientUnits="userSpaceOnUse" x1="46.1837" y1="12.5239" x2="46.1837" y2="79.9182">
			<stop  offset="0" style="stop-color:#137E96;stop-opacity:0"/>
			<stop  offset="0.3902" style="stop-color:#137C95;stop-opacity:0.3902"/>
			<stop  offset="0.6153" style="stop-color:#137393;stop-opacity:0.6153"/>
			<stop  offset="0.7984" style="stop-color:#13658F;stop-opacity:0.7984"/>
			<stop  offset="0.9581" style="stop-color:#145289;stop-opacity:0.9581"/>
			<stop  offset="1" style="stop-color:#144B87"/>
		</linearGradient>
		<path id="XMLID_67_" class="st1" d="M80.9,47.4c0,19.3-15.1,32.5-34.4,32.5S11.5,64.8,11.5,45.5s15.6-33,34.9-33
			S80.9,28.2,80.9,47.4z"/>
		<linearGradient id="XMLID_5_" gradientUnits="userSpaceOnUse" x1="46.8085" y1="48.0331" x2="46.8085" y2="14.9439">
			<stop  offset="0.2347" style="stop-color:#FFFFFF;stop-opacity:0"/>
			<stop  offset="0.9928" style="stop-color:#FFFFFF"/>
		</linearGradient>
		<path id="XMLID_66_" class="st2" d="M74.8,46.3c-8.4,6.1-11.8-5.6-28.5-6.1c-13.9-0.4-19.8,12.6-28.1,4.6
			C9,35.9,25.9,14.9,47.8,14.9C70.8,14.9,84.6,39.2,74.8,46.3z"/>
		<circle id="XMLID_65_" class="st3" cx="38.1" cy="22.8" r="2.6"/>
		<path id="XMLID_64_" class="st3" d="M33.3,24.2c1.7,2.3-0.7,3.1-3.1,4.9c-2.4,1.8-4.3,3.3-5.6,1.5c-0.7-0.9,0.7-3.1,3.1-4.9
			C30.2,24,32.7,23.3,33.3,24.2z"/>
		<g>
			<g>
				<path class="st3" d="M39.6,34.6c0,1.8-1.1,3.3-3.3,3.3c-2,0-3.3-1.5-3.3-3.1c0-1.8,1.3-3.4,3.3-3.4
					C38.3,31.3,39.6,32.8,39.6,34.6z"/>
				<rect x="33.1" y="39.4" class="st3" width="6.5" height="21.1"/>
				<path class="st3" d="M55.2,39.8c-3.4,0-5.4,2-6.2,3.3h-0.2l-0.3-2.8h-5.9c0,1.8,0.2,3.9,0.2,6.3v14h6.5V49c0-0.7,0-1.1,0.2-1.6
					c0.5-1.1,1.3-2.6,3.1-2.6c2.3,0,3.3,2,3.3,4.6v11.2h6.5v-12C62.3,42.5,59.3,39.8,55.2,39.8z"/>
			</g>
		</g>
	</g>
</g>
<g id="DESIGNED_BY_FREEPIK">
</g>
</svg>
