<?xml version="1.0" encoding="utf-8"?>
<!-- Generator: Adobe Illustrator 21.0.2, SVG Export Plug-In . SVG Version: 6.00 Build 0)  -->
<svg version="1.1" id="Layer_1" xmlns="http://www.w3.org/2000/svg" xmlns:xlink="http://www.w3.org/1999/xlink" x="0px" y="0px"
	 viewBox="0 0 191.8 191.8" style="enable-background:new 0 0 191.8 191.8;" xml:space="preserve">
<style type="text/css">
	.st0{fill:#606060;}
	.st1{fill-rule:evenodd;clip-rule:evenodd;fill:#EFEFEF;}
	.st2{fill:#747B87;}
	.st3{fill:#444A58;}
	.st4{fill-rule:evenodd;clip-rule:evenodd;fill:#444A58;}
	.st5{fill:#444A57;}
	.st6{fill:none;}
</style>
<path class="st3" d="M118.9,41.4C131,57,137.5,75.9,137.5,95.9c0,20-6.4,38.8-18.6,54.5c-3.9,5-3.1,12.2,1.7,16.2
	c4.8,4,11.8,3.2,15.7-1.8c15.3-19.8,23.4-43.6,23.4-68.9c0-25.3-8.1-49.1-23.4-68.9c-3.8-5-10.9-5.8-15.7-1.8
	c-2.8,2.3-4.2,5.6-4.2,9C116.5,36.7,117.3,39.3,118.9,41.4 M87.3,139c4.8,4,11.8,3.2,15.7-1.8c9.3-12,14.3-26.3,14.3-41.3
	c0-15-4.9-29.3-14.3-41.3c-3.8-5-10.9-5.8-15.7-1.8c-4.8,4-5.6,11.2-1.7,16.2c12.3,15.8,12.3,38.1,0,53.9c-1.7,2.1-2.4,4.7-2.4,7.2
	C83.1,133.4,84.6,136.7,87.3,139 M65.3,95.9c0-9.5-7.4-17.2-16.6-17.2c-9.2,0-16.6,7.7-16.6,17.2c0,9.5,7.5,17.2,16.6,17.2
	C57.8,113.1,65.3,105.4,65.3,95.9"/>
</svg>
