<?xml version="1.0" encoding="utf-8"?>
<!-- Generator: Adobe Illustrator 21.0.2, SVG Export Plug-In . SVG Version: 6.00 Build 0)  -->
<svg version="1.1" xmlns="http://www.w3.org/2000/svg" xmlns:xlink="http://www.w3.org/1999/xlink" x="0px" y="0px"
	 viewBox="0 0 95 95" style="enable-background:new 0 0 95 95;" xml:space="preserve">
<style type="text/css">
	.st0{fill:url(#XMLID_2_);}
	.st1{fill:url(#XMLID_3_);}
	.st2{opacity:0.33;fill:url(#XMLID_5_);}
	.st3{fill:#FFFFFF;}
	.st4{fill:url(#XMLID_12_);}
	.st5{fill:url(#XMLID_13_);}
	.st6{opacity:0.33;fill:url(#XMLID_14_);}
	.st7{fill:url(#XMLID_15_);}
	.st8{fill:url(#XMLID_21_);}
	.st9{opacity:0.33;fill:url(#XMLID_22_);}
	.st10{fill:url(#XMLID_23_);}
	.st11{fill:url(#XMLID_24_);}
	.st12{opacity:0.33;fill:url(#XMLID_33_);}
	.st13{fill:url(#XMLID_34_);}
	.st14{fill:url(#XMLID_35_);}
	.st15{opacity:0.33;fill:url(#XMLID_36_);}
	.st16{fill:url(#XMLID_42_);}
	.st17{fill:url(#XMLID_43_);}
	.st18{opacity:0.33;fill:url(#XMLID_44_);}
	.st19{fill:url(#XMLID_45_);}
	.st20{fill:url(#XMLID_51_);}
	.st21{opacity:0.33;fill:url(#XMLID_52_);}
	.st22{fill:url(#XMLID_53_);}
	.st23{fill:url(#XMLID_54_);}
	.st24{opacity:0.33;fill:url(#XMLID_60_);}
	.st25{fill:url(#XMLID_61_);}
	.st26{fill:url(#XMLID_62_);}
	.st27{opacity:0.33;fill:url(#XMLID_63_);}
	.st28{fill:url(#XMLID_69_);}
	.st29{fill:url(#XMLID_70_);}
	.st30{opacity:0.33;fill:url(#XMLID_71_);}
	.st31{fill:url(#XMLID_72_);}
	.st32{fill:url(#XMLID_78_);}
	.st33{opacity:0.33;fill:url(#XMLID_79_);}
	.st34{fill:url(#XMLID_80_);}
	.st35{fill:url(#XMLID_81_);}
	.st36{opacity:0.33;fill:url(#XMLID_87_);}
</style>
<g id="BACKGROUND">
</g>
<g id="OBJECTS">
	<g>
		<linearGradient id="XMLID_2_" gradientUnits="userSpaceOnUse" x1="47.5" y1="12.0785" x2="47.5" y2="82.9215">
			<stop  offset="0" style="stop-color:#7D7ECD"/>
			<stop  offset="9.372216e-02" style="stop-color:#797AC8"/>
			<stop  offset="0.209" style="stop-color:#6E6FB9"/>
			<stop  offset="0.3356" style="stop-color:#5B5DA0"/>
			<stop  offset="0.4703" style="stop-color:#40437D"/>
			<stop  offset="0.61" style="stop-color:#1F2351"/>
			<stop  offset="0.6972" style="stop-color:#070C31"/>
		</linearGradient>
		<path id="XMLID_4_" class="st0" d="M84,48.8C84,69.1,68,82.9,47.8,82.9S11,67,11,46.7s16.4-34.6,36.7-34.6S84,28.5,84,48.8z"/>
		<linearGradient id="XMLID_3_" gradientUnits="userSpaceOnUse" x1="46.1838" y1="12.5238" x2="46.1838" y2="79.9181">
			<stop  offset="0" style="stop-color:#32348D;stop-opacity:0"/>
			<stop  offset="0.3272" style="stop-color:#31338B;stop-opacity:0.3272"/>
			<stop  offset="0.5159" style="stop-color:#2D2F82;stop-opacity:0.5159"/>
			<stop  offset="0.6695" style="stop-color:#262974;stop-opacity:0.6695"/>
			<stop  offset="0.8041" style="stop-color:#1D2060;stop-opacity:0.8041"/>
			<stop  offset="0.9252" style="stop-color:#111547;stop-opacity:0.9252"/>
			<stop  offset="1" style="stop-color:#070C33"/>
		</linearGradient>
		<path id="XMLID_31_" class="st1" d="M80.9,47.4c0,19.3-15.1,32.5-34.4,32.5S11.5,64.8,11.5,45.5c0-19.3,15.6-33,34.9-33
			S80.9,28.2,80.9,47.4z"/>
		<linearGradient id="XMLID_5_" gradientUnits="userSpaceOnUse" x1="46.8085" y1="48.0331" x2="46.8085" y2="14.9439">
			<stop  offset="0.2347" style="stop-color:#FFFFFF;stop-opacity:0"/>
			<stop  offset="0.9928" style="stop-color:#FFFFFF"/>
		</linearGradient>
		<path id="XMLID_6_" class="st2" d="M74.8,46.3c-8.4,6.1-11.8-5.6-28.5-6.1c-13.9-0.4-19.8,12.6-28.1,4.6
			C9,35.9,25.9,14.9,47.8,14.9C70.8,14.9,84.6,39.2,74.8,46.3z"/>
		<circle id="XMLID_27_" class="st3" cx="38.1" cy="22.8" r="2.6"/>
		<path id="XMLID_30_" class="st3" d="M33.3,24.2c1.7,2.3-0.7,3.1-3.1,4.9c-2.4,1.8-4.3,3.3-5.6,1.5c-0.7-0.9,0.7-3.1,3.1-4.9
			C30.2,24,32.7,23.3,33.3,24.2z"/>
		<g>
			<path class="st3" d="M56.1,49l1.4-6.4l-6.6,0l0-4.3c0-1.8,0.9-3.7,3.5-3.7l3.1,0l-0.1-6.7l-4.6,0c-6.6,0-9.7,4-9.6,9.5l0,5.3
				l-5.1,0l0,6.4l5.1,0l0.1,16.6c1.3,0.3,2.9,0.5,4.5,0.5c1.1,0,2.5-0.1,3.2-0.3L50.9,49L56.1,49z"/>
		</g>
	</g>
</g>
<g id="DESIGNED_BY_FREEPIK">
</g>
</svg>
