<?xml version="1.0" encoding="iso-8859-1"?>
<!-- Generator: Adobe Illustrator 19.0.0, SVG Export Plug-In . SVG Version: 6.00 Build 0)  -->
<svg version="1.1" id="Capa_1" xmlns="http://www.w3.org/2000/svg" xmlns:xlink="http://www.w3.org/1999/xlink" x="0px" y="0px"
	 viewBox="0 0 436.923 436.923" style="enable-background:new 0 0 436.923 436.923;" xml:space="preserve">
<g>
	<path style="fill:#431C10;" d="M190.154,307.2l-72,124.8c-2.4,4-7.2,5.2-10.8,2.8c-2.4-1.2-3.6-3.6-4-5.6l0,0l-8.8-58.4l-54.8,21.6
		c-4,1.6-8.8-0.4-10.4-4.4c-0.8-2.4-0.8-5.2,0.8-7.2l71.6-124c2.4-4,7.2-5.2,10.8-2.8c0.8,0.4,1.2,0.8,1.6,1.2l0,0
		c9.6,9.6,20.8,18,32.8,24.8s24.8,11.6,38.4,14.8c4.4,0.8,7.2,5.2,6,9.6C190.954,305.6,190.554,306.4,190.154,307.2 M335.354,258
		l71.6,124c2.4,4,0.8,8.8-2.8,10.8c-2,1.2-4.8,1.2-6.8,0.4l0,0l-54.8-21.6l-8.4,58.4c-0.8,4.4-4.8,7.6-9.2,6.8c-2.8-0.4-4.8-2-6-4.4
		l-72.4-125.2c-2.4-4-0.8-8.8,2.8-10.8c0.8-0.4,1.6-0.8,2.4-0.8l0,0c13.6-3.2,26.4-8,38.4-14.8s23.2-15.2,32.8-24.8
		c3.2-3.2,8-3.2,11.2,0C334.554,256.4,334.954,257.2,335.354,258z"/>
	<path style="fill:#FCB912;" d="M218.554,0c85.6,0,154.8,69.2,154.8,154.8s-69.2,154.8-154.8,154.8s-154.8-69.2-154.8-154.8
		C63.754,69.2,132.954,0,218.554,0"/>
	<path style="fill:#F2A31E;" d="M218.554,0c-2,0-3.6,0-5.6,0c83.2,2.8,149.6,70.8,149.6,154.8c0,83.6-66.4,152-149.6,154.8
		c2,0,3.6,0,5.6,0c85.6,0,154.8-69.2,154.8-154.8S304.154,0,218.554,0z"/>
</g>
<g>
	<path style="fill:#F2A31E;" d="M304.154,76c-20-20-48-32.4-78.8-32.4s-58.4,12.4-78.8,32.4c-20,20-32.4,48-32.4,78.8
		s12.4,58.4,32.4,78.8c20,20,48,32.4,78.8,32.4s58.4-12.4,78.8-32.4c20-20,32.4-48,32.4-78.8C336.954,124,324.554,96,304.154,76
		 M225.754,27.6c35.2,0,66.8,14.4,90,37.2c23.2,23.2,37.2,54.8,37.2,90s-14.4,66.8-37.2,90c-23.2,23.2-54.8,37.2-90,37.2
		s-66.8-14.4-90-37.2c-23.2-23.2-37.2-54.8-37.2-90s14.4-66.8,37.2-90S190.554,27.6,225.754,27.6z"/>
	<path style="fill:#F2A31E;" d="M235.354,90.4l12,36.8h38.8c5.6,0,10,4.4,10,10c0,3.2-1.6,6.4-4,8l0,0l-31.6,22.8l12,36.8
		c1.6,5.2-1.2,11.2-6.4,12.8c-3.6,1.2-7.2,0.4-9.6-2l-30.8-22.4l-31.2,22.8c-4.4,3.2-10.8,2.4-14-2.4c-2-2.8-2.4-6-1.6-9.2l0,0
		l12-36.8l-31.6-22.8c-4.4-3.2-5.6-9.6-2.4-14c2-2.8,5.6-4.4,8.8-4h38l12-36.8c1.6-5.2,7.6-8.4,12.8-6.4
		C232.154,84.8,234.554,87.2,235.354,90.4"/>
</g>
<g>
	<path style="fill:#FCF8CF;" d="M297.354,76c-20-20-48-32.4-78.8-32.4s-58.4,12.4-78.8,32.4c-20,20-32.4,48-32.4,78.8
		s12.4,58.4,32.4,78.8c20,20,48,32.4,78.8,32.4s58.4-12.4,78.8-32.4c20-20,32.4-48,32.4-78.8C329.754,124,317.354,96,297.354,76
		 M218.554,27.6c35.2,0,66.8,14.4,90,37.2c23.2,23.2,37.2,54.8,37.2,90s-14.4,66.8-37.2,90c-23.2,23.2-54.8,37.2-90,37.2
		s-66.8-14.4-90-37.2c-23.2-23.2-37.2-54.8-37.2-90s14.4-66.8,37.2-90C151.754,41.6,183.354,27.6,218.554,27.6z"/>
	<path style="fill:#FCF8CF;" d="M228.154,90.4l12,36.8h38.8c5.6,0,10,4.4,10,10c0,3.2-1.6,6.4-4,8l0,0l-31.6,22.8l12,36.8
		c1.6,5.2-1.2,11.2-6.4,12.8c-3.6,1.2-7.2,0.4-9.6-2l-30.8-22l-31.2,22.8c-4.4,3.2-10.8,2.4-14-2.4c-2-2.8-2.4-6-1.6-9.2l0,0
		l12-36.8l-31.6-22.8c-4.4-3.2-5.6-9.6-2.4-14c2-2.8,5.6-4.4,8.8-4h38l12-36.8c1.6-5.2,7.6-8.4,12.8-6.4
		C224.954,84.8,227.354,87.2,228.154,90.4"/>
</g>
<g>
</g>
<g>
</g>
<g>
</g>
<g>
</g>
<g>
</g>
<g>
</g>
<g>
</g>
<g>
</g>
<g>
</g>
<g>
</g>
<g>
</g>
<g>
</g>
<g>
</g>
<g>
</g>
<g>
</g>
</svg>
