<?xml version="1.0" encoding="utf-8"?>
<!-- Generator: Adobe Illustrator 21.0.2, SVG Export Plug-In . SVG Version: 6.00 Build 0)  -->
<svg version="1.1" id="Layer_1" xmlns="http://www.w3.org/2000/svg" xmlns:xlink="http://www.w3.org/1999/xlink" x="0px" y="0px"
	 viewBox="0 0 191.8 191.8" style="enable-background:new 0 0 191.8 191.8;" xml:space="preserve">
<style type="text/css">
	.st0{fill-rule:evenodd;clip-rule:evenodd;fill:#EFEFEF;}
	.st1{fill:#747B87;}
	.st2{fill:#444A58;}
	.st3{fill-rule:evenodd;clip-rule:evenodd;fill:#444A58;}
	.st4{fill:#444A57;}
	.st5{fill:none;}
	.st6{fill:#2AB659;}
</style>
<g>
	<path class="st6" d="M116.1,93.9c-4,0-7.5,2.9-8.3,6.8l-0.2,0.8c-0.6,2.8-3,4.8-5.9,4.8H49.9V91.5c0-0.8-0.3-1.6-0.8-2.1
		c-1.2-1.2-3.1-1.3-4.3-0.1l-23.3,22.7c-0.1,0.1-0.1,0.1-0.2,0.2c-1.7,1.9-1.7,4.8,0.2,6.6l23.3,22.7c0.6,0.5,1.3,0.9,2.1,0.9
		c1.7,0,3-1.4,3-3.1v-14.8h56.8c9.9,0,17.9-8,17.9-17.9v-3.9C124.6,97.8,120.8,93.9,116.1,93.9z"/>
	<path class="st6" d="M170.3,73.1L147,50.4c-0.6-0.5-1.3-0.9-2.1-0.9c-1.7,0-3,1.4-3,3.1v14.8H85.1c-9.9,0-17.9,8-17.9,17.9v3.9
		c0,4.7,3.8,8.5,8.5,8.5c4.1,0,7.5-2.9,8.3-6.8l0.2-0.8c0.6-2.8,3-4.8,5.9-4.8h51.9v14.8c0,0.8,0.3,1.6,0.8,2.1
		c1.2,1.2,3.1,1.3,4.3,0.1l23.3-22.7c0.1-0.1,0.1-0.1,0.2-0.2C172.2,77.8,172.2,74.8,170.3,73.1z"/>
</g>
</svg>
