<?xml version="1.0" encoding="utf-8"?>
<!-- Generator: Adobe Illustrator 21.0.2, SVG Export Plug-In . SVG Version: 6.00 Build 0)  -->
<svg version="1.1" xmlns="http://www.w3.org/2000/svg" xmlns:xlink="http://www.w3.org/1999/xlink" x="0px" y="0px"
	 viewBox="0 0 32 32" style="enable-background:new 0 0 32 32;" xml:space="preserve">
<style type="text/css">
	.st0{display:none;}
	.st1{display:inline;fill:#FFFFFF;}
	.st2{fill:none;stroke:#000000;stroke-width:2;stroke-linejoin:round;stroke-miterlimit:10;}
</style>
<g id="Background" class="st0">
	<rect x="-17.5" y="-17.5" class="st1" width="490" height="490"/>
</g>
<g id="_x31_-User-Man">
	<g>
		<g id="XMLID_1_">
			<g>
				<path d="M23,8v1c-4,0-7-3-7-3c0,3-7,3-7,3V8c0-3.8,3.1-7,7-7S23,4.2,23,8z"/>
			</g>
			<g>
				<path class="st2" d="M13,23c0,0,1,2,3,2s3-2,3-2"/>
				<path class="st2" d="M13,23l-8,3c0,0-4,1-4,3v2h30v-2c0-2-4-3-4-3l-8-3v-2.7c2.4-1.1,4-3.5,4-6.3c0.5,0,1-0.4,1-1v-2
					c0-0.6-0.5-1-1-1V9V8c0-3.8-3.1-7-7-7S9,4.2,9,8v1v1c-0.6,0-1,0.4-1,1v2c0,0.6,0.4,1,1,1c0,2.8,1.6,5.2,4,6.3V23z"/>
				<path class="st2" d="M9,9c0,0,7,0,7-3c0,0,3,3,7,3"/>
			</g>
		</g>
	</g>
</g>
<g id="_x32_-User-Woman">
</g>
<g id="_x33_-User-Add">
</g>
<g id="_x34_-User-Remove">
</g>
<g id="_x35_-User">
</g>
<g id="_x36_-User">
</g>
<g id="_x37_-User-Check">
</g>
<g id="_x38_-User">
</g>
<g id="_x39_-User-Up">
</g>
<g id="_x31_0-User-Down">
</g>
<g id="_x31_1-User-Right">
</g>
<g id="_x31_2-User-Left">
</g>
<g id="_x31_3-User-Process">
</g>
<g id="_x31_4-User-Security">
</g>
<g id="_x31_5-User-Security">
</g>
<g id="_x31_6-User-Time">
</g>
<g id="_x31_7-User-Pin">
</g>
<g id="_x31_8-User-Communication">
</g>
<g id="_x31_9-User-Idea">
</g>
<g id="_x32_0-User-Exchange">
</g>
<g id="_x32_1-User-Trash">
</g>
<g id="_x32_2-User-Arrow_Up">
</g>
<g id="_x32_3-User-Arrow_Down">
</g>
<g id="_x32_4-User-Search">
</g>
<g id="_x32_5-User-Data">
</g>
<g id="_x32_6-User-Arrow_Right">
</g>
<g id="_x32_7-User-Arrow_Left">
</g>
<g id="_x32_8-User-Pen">
</g>
<g id="_x32_9-User-Security">
</g>
<g id="_x33_0-User-Location">
</g>
<g id="_x33_1-User-Chart">
</g>
<g id="_x33_2-User-Chart">
</g>
<g id="_x33_3-User-Bell">
</g>
<g id="_x33_4-User-Smile">
</g>
<g id="_x33_5-User-Sad">
</g>
<g id="_x33_6-User-Check">
</g>
<g id="_x33_7-User">
</g>
<g id="_x33_8-User-List">
</g>
<g id="_x33_9-User-List">
</g>
<g id="_x34_0-User-Mail">
</g>
</svg>
